<?xml version="1.0" standalone="no"?>
<!DOCTYPE svg PUBLIC "-//W3C//DTD SVG 20010904//EN"
 "http://www.w3.org/TR/2001/REC-SVG-20010904/DTD/svg10.dtd">
<svg version="1.0" xmlns="http://www.w3.org/2000/svg"
 width="912.000000pt" height="273.000000pt" viewBox="0 0 912.000000 273.000000"
 preserveAspectRatio="xMidYMid meet">

<g transform="translate(0.000000,273.000000) scale(0.100000,-0.100000)"
fill="#000000" stroke="none">
<path d="M1494 1973 c-32 -49 -58 -96 -58 -105 0 -9 -4 -14 -8 -12 -4 3 -14
-6 -21 -18 -8 -13 -35 -55 -61 -95 -25 -40 -46 -75 -46 -78 0 -3 -16 -27 -35
-52 -20 -26 -33 -53 -31 -60 3 -7 1 -12 -3 -10 -14 3 -62 -73 -55 -86 4 -7 4
-9 -1 -5 -12 11 -58 -60 -49 -75 4 -6 4 -9 -1 -5 -10 9 -57 -60 -49 -73 3 -5
0 -8 -8 -7 -7 2 -12 -5 -12 -14 1 -10 -2 -16 -6 -13 -9 5 -106 -144 -103 -157
2 -4 -2 -8 -7 -8 -6 0 -10 -4 -10 -10 0 -5 7 -10 16 -10 8 0 13 -4 9 -9 -5 -8
23 -31 38 -31 9 0 92 145 89 155 -2 5 0 7 4 3 6 -6 101 129 121 172 4 8 33 54
65 102 31 47 59 92 60 100 2 7 11 19 21 26 9 7 17 18 17 23 0 6 18 37 40 69
22 32 40 63 40 69 0 5 3 11 8 13 12 5 75 109 75 124 0 7 4 11 8 9 7 -5 23 24
21 37 -4 17 48 -13 223 -127 44 -29 113 -74 154 -100 41 -27 80 -48 88 -48 7
0 11 -2 8 -5 -5 -5 50 -44 95 -67 28 -14 29 -14 50 15 l22 31 -28 22 c-60 47
-196 127 -206 121 -7 -5 -8 -2 -3 6 6 10 4 12 -9 7 -9 -4 -15 -3 -12 2 6 8
-126 101 -143 101 -5 0 -16 6 -23 13 -32 31 -110 77 -121 71 -7 -4 -9 -4 -5 1
7 7 -81 75 -96 75 -3 0 -31 -39 -62 -87z m171 -42 c3 -5 2 -12 -3 -15 -5 -3
-9 1 -9 9 0 17 3 19 12 6z m-514 -614 c-10 -9 -11 -8 -5 6 3 10 9 15 12 12 3
-3 0 -11 -7 -18z"/>
<path d="M1533 1815 c-26 -41 -94 -146 -151 -233 -57 -86 -104 -167 -105 -179
-1 -11 -5 -19 -9 -17 -6 4 -41 -45 -123 -176 -12 -19 -43 -67 -69 -107 -25
-40 -46 -76 -46 -81 0 -13 59 -44 71 -37 6 4 8 14 4 23 -3 9 -3 13 1 9 7 -7
54 50 54 65 0 5 9 19 20 31 12 12 41 55 66 97 25 41 82 134 128 205 47 72 116
180 155 242 40 62 76 115 81 118 8 5 106 -48 120 -65 3 -3 48 -33 100 -66 52
-32 131 -83 174 -111 43 -29 82 -53 85 -53 3 0 16 16 28 35 l23 34 -22 15
c-12 8 -26 12 -31 9 -6 -3 -8 -2 -4 3 3 5 -27 29 -66 52 -40 24 -92 56 -117
72 -25 17 -56 35 -70 42 -14 7 -27 16 -30 20 -7 8 -79 58 -86 58 -2 0 -27 16
-54 35 -27 19 -56 35 -64 35 -8 0 -36 -34 -63 -75z m-178 -314 c3 -5 2 -12 -3
-15 -5 -3 -9 1 -9 9 0 17 3 19 12 6z"/>
<path d="M1575 1662 c-27 -42 -53 -84 -56 -92 -4 -9 -14 -22 -23 -29 -9 -7
-16 -17 -16 -22 0 -4 -11 -25 -25 -45 -14 -21 -23 -44 -20 -51 2 -8 1 -11 -5
-8 -5 3 -30 -27 -56 -67 -65 -101 -124 -192 -169 -263 -21 -33 -48 -76 -61
-94 -13 -19 -22 -36 -21 -36 1 -1 20 -12 41 -25 22 -13 36 -18 32 -12 -4 7 -2
12 3 12 6 0 11 6 11 13 0 7 8 22 18 33 46 51 234 353 227 364 -3 5 1 12 9 17
24 13 107 143 100 155 -4 6 -3 8 3 5 5 -3 25 18 44 48 19 30 36 55 39 55 3 0
25 -13 49 -29 25 -17 49 -27 55 -24 6 3 8 3 4 -1 -6 -7 84 -76 98 -76 2 0 34
-21 71 -47 38 -25 74 -46 81 -46 6 0 12 -5 12 -10 0 -5 7 -4 15 3 9 8 13 21
10 34 -5 16 -4 18 4 6 8 -12 11 -12 17 3 3 10 5 19 3 21 -3 3 -105 67 -203
129 -11 7 -65 42 -120 78 -56 36 -106 68 -111 71 -6 4 -33 -28 -60 -70z m390
-200 c-3 -3 -11 0 -18 7 -9 10 -8 11 6 5 10 -3 15 -9 12 -12z m-664 -349 c13
-16 12 -17 -3 -4 -17 13 -22 21 -14 21 2 0 10 -8 17 -17z m-117 -133 c-6 -6
-10 -3 -10 10 0 13 4 16 10 10 7 -7 7 -13 0 -20z"/>
<path d="M2990 1602 c-6 -2 -10 -95 -9 -250 0 -136 3 -241 6 -235 3 9 10 10
22 4 10 -6 32 -9 49 -9 l32 1 0 67 0 67 101 5 c56 3 104 9 107 14 4 5 14 10
22 12 48 11 90 85 90 160 0 63 -30 108 -90 138 -39 20 -64 23 -183 26 -75 2
-142 2 -147 0z m264 -96 c38 -16 48 -37 45 -95 -3 -35 -7 -41 -38 -55 -49 -20
-101 -28 -139 -20 l-32 7 0 88 0 89 65 0 c36 0 81 -6 99 -14z"/>
<path d="M1634 1528 c-15 -24 -31 -44 -35 -46 -5 -2 -9 -8 -9 -14 0 -5 -12
-25 -26 -43 -15 -20 -23 -39 -18 -47 4 -7 4 -10 -1 -6 -7 7 -31 -27 -164 -230
-23 -35 -38 -69 -34 -75 3 -7 3 -9 -2 -5 -8 8 -55 -52 -55 -71 0 -5 -3 -11 -7
-13 -5 -1 -20 -22 -35 -44 l-27 -41 29 -22 c16 -11 33 -21 38 -21 4 0 19 19
32 43 13 23 26 44 29 47 22 19 70 103 65 113 -4 7 -4 9 0 5 7 -6 54 59 120
165 9 15 14 33 10 39 -4 7 -3 8 4 4 7 -4 18 7 28 26 9 18 22 40 30 48 21 24
63 108 57 113 -2 3 6 4 19 3 20 -3 59 -26 197 -119 14 -9 34 -20 44 -23 9 -4
17 -10 17 -14 0 -4 7 -10 14 -13 10 -4 23 7 37 29 12 19 20 36 18 38 -21 15
-111 66 -118 66 -5 0 -11 3 -13 8 -5 12 -100 72 -115 72 -7 0 -13 4 -13 10 0
9 -72 60 -85 60 -2 0 -17 -19 -31 -42z"/>
<path d="M3590 1482 c-48 -21 -88 -65 -103 -113 -20 -60 -20 -71 -7 -121 33
-117 192 -176 310 -115 43 21 72 58 36 44 -9 -4 -15 -3 -12 1 3 5 -2 19 -10
31 -15 21 -17 21 -34 6 -21 -19 -79 -30 -115 -21 -28 7 -75 51 -75 70 0 8 45
11 145 10 l145 -1 0 40 c0 59 -32 117 -82 150 -36 23 -52 27 -113 26 -38 0
-77 -3 -85 -7z m125 -72 c16 0 55 -47 55 -66 0 -11 -21 -14 -95 -14 -105 0
-114 7 -72 54 22 26 89 49 95 34 2 -4 10 -8 17 -8z"/>
<path d="M4013 1463 c-23 -14 -50 -43 -62 -63 -24 -43 -40 -127 -23 -116 8 5
10 2 6 -9 -17 -43 35 -117 104 -146 73 -32 200 -20 238 22 14 16 14 20 -12 48
l-27 30 -25 -19 c-44 -35 -123 -24 -164 23 -35 39 -25 43 127 41 l145 -1 0 46
c0 67 -48 139 -108 162 -13 5 -54 9 -91 9 -56 0 -74 -4 -108 -27z m162 -41
c-3 -3 -11 0 -18 7 -9 10 -8 11 6 5 10 -3 15 -9 12 -12z m4 -17 c28 -14 41
-33 41 -61 0 -11 -20 -14 -95 -14 l-94 0 2 29 c1 16 7 29 12 28 6 -1 9 4 7 11
-1 8 1 11 5 9 5 -2 17 -1 28 4 31 12 63 10 94 -6z"/>
<path d="M4402 1300 l0 -190 36 0 c64 1 72 15 72 119 0 127 25 171 97 171 27
0 28 1 24 46 l-3 46 -40 -5 c-22 -3 -51 -16 -64 -28 l-24 -22 0 26 c0 26 -3
27 -49 27 l-49 0 0 -190z"/>
</g>
</svg>
